<svg width="224" height="92" viewBox="0 0 224 92" fill="none" xmlns="http://www.w3.org/2000/svg">
<path d="M81.2589 91.1031H9.84416C4.40747 91.1031 0 86.6956 0 81.2589V9.84416C0 4.40747 4.40747 0 9.84416 0H81.2588C86.6956 0 91.1029 4.40747 91.1029 9.84416V81.2587C91.1031 86.6956 86.6956 91.1031 81.2589 91.1031Z" fill="black" style="fill:black;fill-opacity:1;"/>
<path d="M81.2589 91.1031H9.84416C4.40747 91.1031 0 86.6956 0 81.2589V9.84416C0 4.40747 4.40747 0 9.84416 0H81.2588C86.6956 0 91.1029 4.40747 91.1029 9.84416V81.2587C91.1031 86.6956 86.6956 91.1031 81.2589 91.1031Z" fill="black" style="fill:black;fill-opacity:1;"/>
<path d="M50.5496 32.5797C49.1761 33.2992 48.6646 34.5145 48.6646 37.8718C48.6646 37.8718 49.3601 37.1991 50.3916 36.8253C51.1437 36.5528 51.7859 36.1382 52.1575 35.8661C53.3181 35.016 53.4976 33.9209 53.4976 32.078C53.4976 32.078 51.6049 32.027 50.5496 32.5797ZM42.404 33.3664C41.2838 34.354 40.9566 35.9274 40.9566 35.9274L37.2483 50.2951L34.164 38.5363C33.8636 37.2862 33.3219 35.7406 32.4653 34.6956C31.374 33.3642 29.1553 33.2807 28.9189 33.2807C28.6825 33.2807 26.4639 33.3642 25.3725 34.6956C24.5159 35.7406 23.9741 37.2862 23.6738 38.5363L20.5895 50.2951L16.881 35.9274C16.881 35.9274 16.5538 34.354 15.4336 33.3664C13.6172 31.765 10.8936 32.1075 10.8936 32.1075L17.995 58.9586C17.995 58.9586 20.338 59.1273 21.5101 58.5298C23.0498 57.7447 23.7827 57.1394 24.7146 53.486C25.5454 50.2288 27.8678 40.6616 28.0846 39.9807C28.192 39.6441 28.3278 38.8395 28.9185 38.8395C29.5228 38.8395 29.647 39.6434 29.7524 39.9807C29.9655 40.6628 32.2918 50.2288 33.1225 53.486C34.0543 57.1394 34.7873 57.7447 36.3269 58.5298C37.499 59.1273 39.842 58.9586 39.842 58.9586L46.9435 32.1075C46.9439 32.1075 44.2204 31.765 42.404 33.3664ZM48.6646 58.9586C48.6646 58.9586 50.4565 59.1851 51.6288 58.5875C53.1377 57.8183 53.4842 57.0769 53.4976 53.7377V37.4635L53.4954 37.4641V36.4914C53.4954 36.4914 53.0513 37.1781 52.0375 37.7449C51.3867 38.1089 50.7622 38.3554 50.0918 38.6769C48.9687 39.2157 48.6644 39.8159 48.6644 40.7316V58.9586H48.6646ZM71.1969 45.5983L80.2076 32.1966C80.2076 32.1966 76.4045 31.5491 74.5215 33.2633C73.3167 34.36 71.9693 36.3323 71.9693 36.3323L68.654 41.1116C68.4933 41.36 68.2824 41.6305 67.9465 41.6305C67.6104 41.6305 67.3996 41.36 67.2389 41.1116L63.9236 36.3323C63.9236 36.3323 62.5763 34.36 61.3714 33.2633C59.4884 31.5493 55.6854 32.1966 55.6854 32.1966L64.6958 45.5983L55.709 58.9586C55.709 58.9586 59.6693 59.4586 61.5524 57.7444C62.7572 56.6476 63.9236 54.8643 63.9236 54.8643L67.2389 50.0852C67.3996 49.8368 67.6106 49.5663 67.9465 49.5663C68.2826 49.5663 68.4933 49.8368 68.654 50.0852L71.9693 54.8643C71.9693 54.8643 73.204 56.6476 74.4088 57.7444C76.2919 59.4584 80.1834 58.9586 80.1834 58.9586L71.1969 45.5983Z" fill="white" style="fill:white;fill-opacity:1;"/>
<path d="M213.566 91.1031H142.151C136.714 91.1031 132.307 86.6956 132.307 81.2589V9.84416C132.307 4.40747 136.714 0 142.151 0H213.565C219.002 0 223.41 4.40747 223.41 9.84416V81.2587C223.41 86.6956 219.002 91.1031 213.566 91.1031Z" fill="black" style="fill:black;fill-opacity:1;"/>
<path d="M213.566 91.1031H142.151C136.714 91.1031 132.307 86.6956 132.307 81.2589V9.84416C132.307 4.40747 136.714 0 142.151 0H213.565C219.002 0 223.41 4.40747 223.41 9.84416V81.2587C223.41 86.6956 219.002 91.1031 213.566 91.1031Z" fill="url(#paint0_linear_22004_14456)"/>
<path d="M193.828 35.0088V27.6342C194.804 27.1783 195.631 26.4544 196.212 25.5469C196.792 24.6394 197.103 23.5857 197.108 22.5084V22.336C197.099 19.2017 194.561 16.6631 191.426 16.6547H191.254C188.12 16.6631 185.581 19.2019 185.573 22.336V22.5084C185.578 23.5857 185.888 24.6394 186.469 25.5469C187.049 26.4544 187.876 27.1783 188.852 27.6342V35.0241C186.046 35.4533 183.402 36.6163 181.19 38.3954L160.909 22.6004C161.831 19.1479 159.78 15.6015 156.327 14.6793C152.875 13.757 149.328 15.8084 148.406 19.2609C147.484 22.7135 149.535 26.2598 152.988 27.1819C154.639 27.6228 156.397 27.3929 157.879 26.5422L177.819 42.0653C174.143 47.6108 174.242 54.8424 178.068 60.2855L172 66.3536C171.513 66.1985 171.005 66.1158 170.494 66.1084C167.585 66.1084 165.227 68.4668 165.227 71.3759C165.227 74.2851 167.585 76.6433 170.494 76.6433C173.403 76.6433 175.762 74.2849 175.762 71.3759C175.755 70.8647 175.672 70.3573 175.516 69.8703L181.519 63.8672C188.623 69.2934 198.781 67.9333 204.207 60.8293C209.633 53.7253 208.273 43.5677 201.169 38.1416C199.019 36.4991 196.491 35.4219 193.817 35.0087M191.331 59.3049C186.744 59.2943 183.034 55.5673 183.044 50.9803C183.055 46.3934 186.782 42.6835 191.369 42.694C195.95 42.7044 199.657 46.4223 199.655 51.0033C199.655 55.5902 195.937 59.3088 191.35 59.3088" fill="white" style="fill:white;fill-opacity:1;"/>
<path d="M105.224 37.9857C104.73 37.9857 104.33 38.3858 104.33 38.8794C104.33 39.373 104.73 39.7731 105.224 39.7731V38.8794V37.9857ZM122.504 39.5113C122.853 39.1623 122.853 38.5965 122.504 38.2475L116.817 32.5601C116.468 32.211 115.902 32.211 115.553 32.5601C115.204 32.9091 115.204 33.4749 115.553 33.8239L120.608 38.8794L115.553 43.9349C115.204 44.2839 115.204 44.8497 115.553 45.1987C115.902 45.5477 116.468 45.5477 116.817 45.1987L122.504 39.5113ZM105.224 38.8794V39.7731H121.872V38.8794V37.9857H105.224V38.8794Z" fill="black" style="fill:black;fill-opacity:1;"/>
<path d="M100.592 51.5912C100.243 51.9402 100.243 52.5061 100.592 52.8551L106.279 58.5425C106.628 58.8915 107.194 58.8915 107.543 58.5425C107.892 58.1935 107.892 57.6276 107.543 57.2786L102.488 52.2231L107.543 47.1677C107.892 46.8187 107.892 46.2528 107.543 45.9038C107.194 45.5548 106.628 45.5548 106.279 45.9038L100.592 51.5912ZM117.872 53.1168C118.366 53.1168 118.766 52.7167 118.766 52.2231C118.766 51.7296 118.366 51.3295 117.872 51.3295V52.2231V53.1168ZM101.224 52.2231V53.1168C101.239 53.1168 101.255 53.1168 101.271 53.1168C101.286 53.1168 101.302 53.1168 101.318 53.1168C101.333 53.1168 101.349 53.1168 101.365 53.1168C101.38 53.1168 101.396 53.1168 101.411 53.1168C101.427 53.1168 101.442 53.1168 101.458 53.1168C101.473 53.1168 101.489 53.1168 101.504 53.1168C101.519 53.1168 101.535 53.1168 101.55 53.1168C101.566 53.1168 101.581 53.1168 101.596 53.1168C101.611 53.1168 101.627 53.1168 101.642 53.1168C101.657 53.1168 101.672 53.1168 101.688 53.1168C101.703 53.1168 101.718 53.1168 101.733 53.1168C101.748 53.1168 101.763 53.1168 101.778 53.1168C101.793 53.1168 101.809 53.1168 101.824 53.1168C101.839 53.1168 101.854 53.1168 101.869 53.1168C101.883 53.1168 101.898 53.1168 101.913 53.1168C101.928 53.1168 101.943 53.1168 101.958 53.1168C101.973 53.1168 101.988 53.1168 102.002 53.1168C102.017 53.1168 102.032 53.1168 102.047 53.1168C102.062 53.1168 102.076 53.1168 102.091 53.1168C102.106 53.1168 102.12 53.1168 102.135 53.1168C102.15 53.1168 102.164 53.1168 102.179 53.1168C102.193 53.1168 102.208 53.1168 102.223 53.1168C102.237 53.1168 102.252 53.1168 102.266 53.1168C102.281 53.1168 102.295 53.1168 102.309 53.1168C102.324 53.1168 102.338 53.1168 102.353 53.1168C102.367 53.1168 102.381 53.1168 102.396 53.1168C102.41 53.1168 102.424 53.1168 102.439 53.1168C102.453 53.1168 102.467 53.1168 102.481 53.1168C102.496 53.1168 102.51 53.1168 102.524 53.1168C102.538 53.1168 102.552 53.1168 102.566 53.1168C102.581 53.1168 102.595 53.1168 102.609 53.1168C102.623 53.1168 102.637 53.1168 102.651 53.1168C102.665 53.1168 102.679 53.1168 102.693 53.1168C102.707 53.1168 102.721 53.1168 102.735 53.1168C102.749 53.1168 102.763 53.1168 102.776 53.1168C102.79 53.1168 102.804 53.1168 102.818 53.1168C102.832 53.1168 102.846 53.1168 102.859 53.1168C102.873 53.1168 102.887 53.1168 102.901 53.1168C102.914 53.1168 102.928 53.1168 102.942 53.1168C102.955 53.1168 102.969 53.1168 102.983 53.1168C102.996 53.1168 103.01 53.1168 103.023 53.1168C103.037 53.1168 103.051 53.1168 103.064 53.1168C103.078 53.1168 103.091 53.1168 103.105 53.1168C103.118 53.1168 103.132 53.1168 103.145 53.1168C103.158 53.1168 103.172 53.1168 103.185 53.1168C103.199 53.1168 103.212 53.1168 103.225 53.1168C103.239 53.1168 103.252 53.1168 103.265 53.1168C103.279 53.1168 103.292 53.1168 103.305 53.1168C103.318 53.1168 103.332 53.1168 103.345 53.1168C103.358 53.1168 103.371 53.1168 103.384 53.1168C103.397 53.1168 103.411 53.1168 103.424 53.1168C103.437 53.1168 103.45 53.1168 103.463 53.1168C103.476 53.1168 103.489 53.1168 103.502 53.1168C103.515 53.1168 103.528 53.1168 103.541 53.1168C103.554 53.1168 103.567 53.1168 103.58 53.1168C103.593 53.1168 103.606 53.1168 103.619 53.1168C103.631 53.1168 103.644 53.1168 103.657 53.1168C103.67 53.1168 103.683 53.1168 103.696 53.1168C103.708 53.1168 103.721 53.1168 103.734 53.1168C103.747 53.1168 103.759 53.1168 103.772 53.1168C103.785 53.1168 103.797 53.1168 103.81 53.1168C103.823 53.1168 103.835 53.1168 103.848 53.1168C103.861 53.1168 103.873 53.1168 103.886 53.1168C103.898 53.1168 103.911 53.1168 103.923 53.1168C103.936 53.1168 103.948 53.1168 103.961 53.1168C103.973 53.1168 103.986 53.1168 103.998 53.1168C104.011 53.1168 104.023 53.1168 104.036 53.1168C104.048 53.1168 104.06 53.1168 104.073 53.1168C104.085 53.1168 104.097 53.1168 104.11 53.1168C104.122 53.1168 104.134 53.1168 104.147 53.1168C104.159 53.1168 104.171 53.1168 104.183 53.1168C104.196 53.1168 104.208 53.1168 104.22 53.1168C104.232 53.1168 104.244 53.1168 104.257 53.1168C104.269 53.1168 104.281 53.1168 104.293 53.1168C104.305 53.1168 104.317 53.1168 104.329 53.1168C104.341 53.1168 104.353 53.1168 104.365 53.1168C104.377 53.1168 104.389 53.1168 104.401 53.1168C104.413 53.1168 104.425 53.1168 104.437 53.1168C104.449 53.1168 104.461 53.1168 104.473 53.1168C104.485 53.1168 104.497 53.1168 104.509 53.1168C104.521 53.1168 104.532 53.1168 104.544 53.1168C104.556 53.1168 104.568 53.1168 104.58 53.1168C104.591 53.1168 104.603 53.1168 104.615 53.1168C104.627 53.1168 104.638 53.1168 104.65 53.1168C104.662 53.1168 104.673 53.1168 104.685 53.1168C104.697 53.1168 104.708 53.1168 104.72 53.1168C104.732 53.1168 104.743 53.1168 104.755 53.1168C104.767 53.1168 104.778 53.1168 104.79 53.1168C104.801 53.1168 104.813 53.1168 104.824 53.1168C104.836 53.1168 104.847 53.1168 104.859 53.1168C104.87 53.1168 104.882 53.1168 104.893 53.1168C104.905 53.1168 104.916 53.1168 104.927 53.1168C104.939 53.1168 104.95 53.1168 104.962 53.1168C104.973 53.1168 104.984 53.1168 104.996 53.1168C105.007 53.1168 105.018 53.1168 105.03 53.1168C105.041 53.1168 105.052 53.1168 105.063 53.1168C105.075 53.1168 105.086 53.1168 105.097 53.1168C105.108 53.1168 105.12 53.1168 105.131 53.1168C105.142 53.1168 105.153 53.1168 105.164 53.1168C105.175 53.1168 105.187 53.1168 105.198 53.1168C105.209 53.1168 105.22 53.1168 105.231 53.1168C105.242 53.1168 105.253 53.1168 105.264 53.1168C105.275 53.1168 105.286 53.1168 105.297 53.1168C105.308 53.1168 105.319 53.1168 105.33 53.1168C105.341 53.1168 105.352 53.1168 105.363 53.1168C105.374 53.1168 105.385 53.1168 105.396 53.1168C105.407 53.1168 105.418 53.1168 105.429 53.1168C105.44 53.1168 105.45 53.1168 105.461 53.1168C105.472 53.1168 105.483 53.1168 105.494 53.1168C105.505 53.1168 105.515 53.1168 105.526 53.1168C105.537 53.1168 105.548 53.1168 105.558 53.1168C105.569 53.1168 105.58 53.1168 105.591 53.1168C105.601 53.1168 105.612 53.1168 105.623 53.1168C105.633 53.1168 105.644 53.1168 105.655 53.1168C105.665 53.1168 105.676 53.1168 105.687 53.1168C105.697 53.1168 105.708 53.1168 105.718 53.1168C105.729 53.1168 105.74 53.1168 105.75 53.1168C105.761 53.1168 105.771 53.1168 105.782 53.1168C105.792 53.1168 105.803 53.1168 105.813 53.1168C105.824 53.1168 105.834 53.1168 105.845 53.1168C105.855 53.1168 105.866 53.1168 105.876 53.1168C105.886 53.1168 105.897 53.1168 105.907 53.1168C105.918 53.1168 105.928 53.1168 105.938 53.1168C105.949 53.1168 105.959 53.1168 105.97 53.1168C105.98 53.1168 105.99 53.1168 106.001 53.1168C106.011 53.1168 106.021 53.1168 106.031 53.1168C106.042 53.1168 106.052 53.1168 106.062 53.1168C106.072 53.1168 106.083 53.1168 106.093 53.1168C106.103 53.1168 106.113 53.1168 106.124 53.1168C106.134 53.1168 106.144 53.1168 106.154 53.1168C106.164 53.1168 106.174 53.1168 106.185 53.1168C106.195 53.1168 106.205 53.1168 106.215 53.1168C106.225 53.1168 106.235 53.1168 106.245 53.1168C106.255 53.1168 106.265 53.1168 106.275 53.1168C106.286 53.1168 106.296 53.1168 106.306 53.1168C106.316 53.1168 106.326 53.1168 106.336 53.1168C106.346 53.1168 106.356 53.1168 106.366 53.1168C106.376 53.1168 106.386 53.1168 106.395 53.1168C106.405 53.1168 106.415 53.1168 106.425 53.1168C106.435 53.1168 106.445 53.1168 106.455 53.1168C106.465 53.1168 106.475 53.1168 106.485 53.1168C106.495 53.1168 106.504 53.1168 106.514 53.1168C106.524 53.1168 106.534 53.1168 106.544 53.1168C106.554 53.1168 106.563 53.1168 106.573 53.1168C106.583 53.1168 106.593 53.1168 106.602 53.1168C106.612 53.1168 106.622 53.1168 106.632 53.1168C106.641 53.1168 106.651 53.1168 106.661 53.1168C106.671 53.1168 106.68 53.1168 106.69 53.1168C106.7 53.1168 106.709 53.1168 106.719 53.1168C106.729 53.1168 106.738 53.1168 106.748 53.1168C106.758 53.1168 106.767 53.1168 106.777 53.1168C106.787 53.1168 106.796 53.1168 106.806 53.1168C106.815 53.1168 106.825 53.1168 106.835 53.1168C106.844 53.1168 106.854 53.1168 106.863 53.1168C106.873 53.1168 106.882 53.1168 106.892 53.1168C106.901 53.1168 106.911 53.1168 106.92 53.1168C106.93 53.1168 106.939 53.1168 106.949 53.1168C106.958 53.1168 106.968 53.1168 106.977 53.1168C106.987 53.1168 106.996 53.1168 107.006 53.1168C107.015 53.1168 107.025 53.1168 107.034 53.1168C107.043 53.1168 107.053 53.1168 107.062 53.1168C107.072 53.1168 107.081 53.1168 107.09 53.1168C107.1 53.1168 107.109 53.1168 107.119 53.1168C107.128 53.1168 107.137 53.1168 107.147 53.1168C107.156 53.1168 107.165 53.1168 107.175 53.1168C107.184 53.1168 107.193 53.1168 107.202 53.1168C107.212 53.1168 107.221 53.1168 107.23 53.1168C107.24 53.1168 107.249 53.1168 107.258 53.1168C107.267 53.1168 107.277 53.1168 107.286 53.1168C107.295 53.1168 107.304 53.1168 107.313 53.1168C107.323 53.1168 107.332 53.1168 107.341 53.1168C107.35 53.1168 107.359 53.1168 107.369 53.1168C107.378 53.1168 107.387 53.1168 107.396 53.1168C107.405 53.1168 107.414 53.1168 107.424 53.1168C107.433 53.1168 107.442 53.1168 107.451 53.1168C107.46 53.1168 107.469 53.1168 107.478 53.1168C107.487 53.1168 107.497 53.1168 107.506 53.1168C107.515 53.1168 107.524 53.1168 107.533 53.1168C107.542 53.1168 107.551 53.1168 107.56 53.1168C107.569 53.1168 107.578 53.1168 107.587 53.1168C107.596 53.1168 107.605 53.1168 107.614 53.1168C107.623 53.1168 107.632 53.1168 107.641 53.1168C107.65 53.1168 107.659 53.1168 107.668 53.1168C107.677 53.1168 107.686 53.1168 107.695 53.1168C107.704 53.1168 107.713 53.1168 107.722 53.1168C107.731 53.1168 107.74 53.1168 107.749 53.1168C107.758 53.1168 107.767 53.1168 107.776 53.1168C107.785 53.1168 107.793 53.1168 107.802 53.1168C107.811 53.1168 107.82 53.1168 107.829 53.1168C107.838 53.1168 107.847 53.1168 107.856 53.1168C107.865 53.1168 107.873 53.1168 107.882 53.1168C107.891 53.1168 107.9 53.1168 107.909 53.1168C107.918 53.1168 107.927 53.1168 107.935 53.1168C107.944 53.1168 107.953 53.1168 107.962 53.1168C107.971 53.1168 107.979 53.1168 107.988 53.1168C107.997 53.1168 108.006 53.1168 108.015 53.1168C108.023 53.1168 108.032 53.1168 108.041 53.1168C108.05 53.1168 108.059 53.1168 108.067 53.1168C108.076 53.1168 108.085 53.1168 108.094 53.1168C108.102 53.1168 108.111 53.1168 108.12 53.1168C108.128 53.1168 108.137 53.1168 108.146 53.1168C108.155 53.1168 108.163 53.1168 108.172 53.1168C108.181 53.1168 108.19 53.1168 108.198 53.1168C108.207 53.1168 108.216 53.1168 108.224 53.1168C108.233 53.1168 108.242 53.1168 108.25 53.1168C108.259 53.1168 108.268 53.1168 108.276 53.1168C108.285 53.1168 108.294 53.1168 108.302 53.1168C108.311 53.1168 108.32 53.1168 108.328 53.1168C108.337 53.1168 108.346 53.1168 108.354 53.1168C108.363 53.1168 108.371 53.1168 108.38 53.1168C108.389 53.1168 108.397 53.1168 108.406 53.1168C108.415 53.1168 108.423 53.1168 108.432 53.1168C108.44 53.1168 108.449 53.1168 108.458 53.1168C108.466 53.1168 108.475 53.1168 108.483 53.1168C108.492 53.1168 108.5 53.1168 108.509 53.1168C108.518 53.1168 108.526 53.1168 108.535 53.1168C108.543 53.1168 108.552 53.1168 108.56 53.1168C108.569 53.1168 108.578 53.1168 108.586 53.1168C108.595 53.1168 108.603 53.1168 108.612 53.1168C108.62 53.1168 108.629 53.1168 108.637 53.1168C108.646 53.1168 108.654 53.1168 108.663 53.1168C108.671 53.1168 108.68 53.1168 108.688 53.1168C108.697 53.1168 108.705 53.1168 108.714 53.1168C108.722 53.1168 108.731 53.1168 108.739 53.1168C108.748 53.1168 108.756 53.1168 108.765 53.1168C108.773 53.1168 108.782 53.1168 108.79 53.1168C108.799 53.1168 108.807 53.1168 108.816 53.1168C108.824 53.1168 108.833 53.1168 108.841 53.1168C108.85 53.1168 108.858 53.1168 108.867 53.1168C108.875 53.1168 108.884 53.1168 108.892 53.1168C108.901 53.1168 108.909 53.1168 108.917 53.1168C108.926 53.1168 108.934 53.1168 108.943 53.1168C108.951 53.1168 108.96 53.1168 108.968 53.1168C108.977 53.1168 108.985 53.1168 108.993 53.1168C109.002 53.1168 109.01 53.1168 109.019 53.1168C109.027 53.1168 109.036 53.1168 109.044 53.1168C109.052 53.1168 109.061 53.1168 109.069 53.1168C109.078 53.1168 109.086 53.1168 109.095 53.1168C109.103 53.1168 109.111 53.1168 109.12 53.1168C109.128 53.1168 109.137 53.1168 109.145 53.1168C109.153 53.1168 109.162 53.1168 109.17 53.1168C109.179 53.1168 109.187 53.1168 109.196 53.1168C109.204 53.1168 109.212 53.1168 109.221 53.1168C109.229 53.1168 109.238 53.1168 109.246 53.1168C109.254 53.1168 109.263 53.1168 109.271 53.1168C109.28 53.1168 109.288 53.1168 109.296 53.1168C109.305 53.1168 109.313 53.1168 109.322 53.1168C109.33 53.1168 109.338 53.1168 109.347 53.1168C109.355 53.1168 109.363 53.1168 109.372 53.1168C109.38 53.1168 109.389 53.1168 109.397 53.1168C109.405 53.1168 109.414 53.1168 109.422 53.1168C109.431 53.1168 109.439 53.1168 109.447 53.1168C109.456 53.1168 109.464 53.1168 109.472 53.1168C109.481 53.1168 109.489 53.1168 109.498 53.1168C109.506 53.1168 109.514 53.1168 109.523 53.1168C109.531 53.1168 109.54 53.1168 109.548 53.1168C109.556 53.1168 109.565 53.1168 109.573 53.1168C109.581 53.1168 109.59 53.1168 109.598 53.1168C109.607 53.1168 109.615 53.1168 109.623 53.1168C109.632 53.1168 109.64 53.1168 109.649 53.1168C109.657 53.1168 109.665 53.1168 109.674 53.1168C109.682 53.1168 109.69 53.1168 109.699 53.1168C109.707 53.1168 109.716 53.1168 109.724 53.1168C109.732 53.1168 109.741 53.1168 109.749 53.1168C109.758 53.1168 109.766 53.1168 109.774 53.1168C109.783 53.1168 109.791 53.1168 109.8 53.1168C109.808 53.1168 109.816 53.1168 109.825 53.1168C109.833 53.1168 109.842 53.1168 109.85 53.1168C109.858 53.1168 109.867 53.1168 109.875 53.1168C109.884 53.1168 109.892 53.1168 109.9 53.1168C109.909 53.1168 109.917 53.1168 109.926 53.1168C109.934 53.1168 109.942 53.1168 109.951 53.1168C109.959 53.1168 109.968 53.1168 109.976 53.1168C109.984 53.1168 109.993 53.1168 110.001 53.1168C110.01 53.1168 110.018 53.1168 110.027 53.1168C110.035 53.1168 110.043 53.1168 110.052 53.1168C110.06 53.1168 110.069 53.1168 110.077 53.1168C110.086 53.1168 110.094 53.1168 110.102 53.1168C110.111 53.1168 110.119 53.1168 110.128 53.1168C110.136 53.1168 110.145 53.1168 110.153 53.1168C110.162 53.1168 110.17 53.1168 110.178 53.1168C110.187 53.1168 110.195 53.1168 110.204 53.1168C110.212 53.1168 110.221 53.1168 110.229 53.1168C110.238 53.1168 110.246 53.1168 110.255 53.1168C110.263 53.1168 110.272 53.1168 110.28 53.1168C110.289 53.1168 110.297 53.1168 110.306 53.1168C110.314 53.1168 110.322 53.1168 110.331 53.1168C110.339 53.1168 110.348 53.1168 110.356 53.1168C110.365 53.1168 110.373 53.1168 110.382 53.1168C110.39 53.1168 110.399 53.1168 110.408 53.1168C110.416 53.1168 110.425 53.1168 110.433 53.1168C110.442 53.1168 110.45 53.1168 110.459 53.1168C110.467 53.1168 110.476 53.1168 110.484 53.1168C110.493 53.1168 110.501 53.1168 110.51 53.1168C110.518 53.1168 110.527 53.1168 110.536 53.1168C110.544 53.1168 110.553 53.1168 110.561 53.1168C110.57 53.1168 110.578 53.1168 110.587 53.1168C110.595 53.1168 110.604 53.1168 110.613 53.1168C110.621 53.1168 110.63 53.1168 110.638 53.1168C110.647 53.1168 110.656 53.1168 110.664 53.1168C110.673 53.1168 110.681 53.1168 110.69 53.1168C110.699 53.1168 110.707 53.1168 110.716 53.1168C110.724 53.1168 110.733 53.1168 110.742 53.1168C110.75 53.1168 110.759 53.1168 110.768 53.1168C110.776 53.1168 110.785 53.1168 110.794 53.1168C110.802 53.1168 110.811 53.1168 110.82 53.1168C110.828 53.1168 110.837 53.1168 110.846 53.1168C110.854 53.1168 110.863 53.1168 110.872 53.1168C110.88 53.1168 110.889 53.1168 110.898 53.1168C110.906 53.1168 110.915 53.1168 110.924 53.1168C110.933 53.1168 110.941 53.1168 110.95 53.1168C110.959 53.1168 110.967 53.1168 110.976 53.1168C110.985 53.1168 110.994 53.1168 111.002 53.1168C111.011 53.1168 111.02 53.1168 111.029 53.1168C111.037 53.1168 111.046 53.1168 111.055 53.1168C111.064 53.1168 111.072 53.1168 111.081 53.1168C111.09 53.1168 111.099 53.1168 111.108 53.1168C111.116 53.1168 111.125 53.1168 111.134 53.1168C111.143 53.1168 111.152 53.1168 111.161 53.1168C111.169 53.1168 111.178 53.1168 111.187 53.1168C111.196 53.1168 111.205 53.1168 111.214 53.1168C111.222 53.1168 111.231 53.1168 111.24 53.1168C111.249 53.1168 111.258 53.1168 111.267 53.1168C111.276 53.1168 111.285 53.1168 111.294 53.1168C111.302 53.1168 111.311 53.1168 111.32 53.1168C111.329 53.1168 111.338 53.1168 111.347 53.1168C111.356 53.1168 111.365 53.1168 111.374 53.1168C111.383 53.1168 111.392 53.1168 111.401 53.1168C111.41 53.1168 111.419 53.1168 111.428 53.1168C111.437 53.1168 111.446 53.1168 111.455 53.1168C111.464 53.1168 111.473 53.1168 111.482 53.1168C111.491 53.1168 111.5 53.1168 111.509 53.1168C111.518 53.1168 111.527 53.1168 111.536 53.1168C111.545 53.1168 111.554 53.1168 111.563 53.1168C111.572 53.1168 111.581 53.1168 111.59 53.1168C111.599 53.1168 111.608 53.1168 111.618 53.1168C111.627 53.1168 111.636 53.1168 111.645 53.1168C111.654 53.1168 111.663 53.1168 111.672 53.1168C111.681 53.1168 111.691 53.1168 111.7 53.1168C111.709 53.1168 111.718 53.1168 111.727 53.1168C111.736 53.1168 111.746 53.1168 111.755 53.1168C111.764 53.1168 111.773 53.1168 111.782 53.1168C111.792 53.1168 111.801 53.1168 111.81 53.1168C111.819 53.1168 111.829 53.1168 111.838 53.1168C111.847 53.1168 111.856 53.1168 111.866 53.1168C111.875 53.1168 111.884 53.1168 111.893 53.1168C111.903 53.1168 111.912 53.1168 111.921 53.1168C111.931 53.1168 111.94 53.1168 111.949 53.1168C111.959 53.1168 111.968 53.1168 111.977 53.1168C111.987 53.1168 111.996 53.1168 112.005 53.1168C112.015 53.1168 112.024 53.1168 112.034 53.1168C112.043 53.1168 112.052 53.1168 112.062 53.1168C112.071 53.1168 112.081 53.1168 112.09 53.1168C112.1 53.1168 112.109 53.1168 112.119 53.1168C112.128 53.1168 112.137 53.1168 112.147 53.1168C112.156 53.1168 112.166 53.1168 112.175 53.1168C112.185 53.1168 112.194 53.1168 112.204 53.1168C112.214 53.1168 112.223 53.1168 112.233 53.1168C112.242 53.1168 112.252 53.1168 112.261 53.1168C112.271 53.1168 112.28 53.1168 112.29 53.1168C112.3 53.1168 112.309 53.1168 112.319 53.1168C112.329 53.1168 112.338 53.1168 112.348 53.1168C112.357 53.1168 112.367 53.1168 112.377 53.1168C112.386 53.1168 112.396 53.1168 112.406 53.1168C112.416 53.1168 112.425 53.1168 112.435 53.1168C112.445 53.1168 112.454 53.1168 112.464 53.1168C112.474 53.1168 112.484 53.1168 112.493 53.1168C112.503 53.1168 112.513 53.1168 112.523 53.1168C112.533 53.1168 112.542 53.1168 112.552 53.1168C112.562 53.1168 112.572 53.1168 112.582 53.1168C112.592 53.1168 112.601 53.1168 112.611 53.1168C112.621 53.1168 112.631 53.1168 112.641 53.1168C112.651 53.1168 112.661 53.1168 112.671 53.1168C112.681 53.1168 112.69 53.1168 112.7 53.1168C112.71 53.1168 112.72 53.1168 112.73 53.1168C112.74 53.1168 112.75 53.1168 112.76 53.1168C112.77 53.1168 112.78 53.1168 112.79 53.1168C112.8 53.1168 112.81 53.1168 112.82 53.1168C112.831 53.1168 112.841 53.1168 112.851 53.1168C112.861 53.1168 112.871 53.1168 112.881 53.1168C112.891 53.1168 112.901 53.1168 112.911 53.1168C112.921 53.1168 112.932 53.1168 112.942 53.1168C112.952 53.1168 112.962 53.1168 112.972 53.1168C112.983 53.1168 112.993 53.1168 113.003 53.1168C113.013 53.1168 113.023 53.1168 113.034 53.1168C113.044 53.1168 113.054 53.1168 113.065 53.1168C113.075 53.1168 113.085 53.1168 113.095 53.1168C113.106 53.1168 113.116 53.1168 113.126 53.1168C113.137 53.1168 113.147 53.1168 113.157 53.1168C113.168 53.1168 113.178 53.1168 113.189 53.1168C113.199 53.1168 113.209 53.1168 113.22 53.1168C113.23 53.1168 113.241 53.1168 113.251 53.1168C113.262 53.1168 113.272 53.1168 113.283 53.1168C113.293 53.1168 113.304 53.1168 113.314 53.1168C113.325 53.1168 113.335 53.1168 113.346 53.1168C113.356 53.1168 113.367 53.1168 113.377 53.1168C113.388 53.1168 113.399 53.1168 113.409 53.1168C113.42 53.1168 113.431 53.1168 113.441 53.1168C113.452 53.1168 113.463 53.1168 113.473 53.1168C113.484 53.1168 113.495 53.1168 113.505 53.1168C113.516 53.1168 113.527 53.1168 113.537 53.1168C113.548 53.1168 113.559 53.1168 113.57 53.1168C113.581 53.1168 113.591 53.1168 113.602 53.1168C113.613 53.1168 113.624 53.1168 113.635 53.1168C113.645 53.1168 113.656 53.1168 113.667 53.1168C113.678 53.1168 113.689 53.1168 113.7 53.1168C113.711 53.1168 113.722 53.1168 113.733 53.1168C113.744 53.1168 113.755 53.1168 113.766 53.1168C113.777 53.1168 113.788 53.1168 113.799 53.1168C113.81 53.1168 113.821 53.1168 113.832 53.1168C113.843 53.1168 113.854 53.1168 113.865 53.1168C113.876 53.1168 113.887 53.1168 113.898 53.1168C113.909 53.1168 113.92 53.1168 113.932 53.1168C113.943 53.1168 113.954 53.1168 113.965 53.1168C113.976 53.1168 113.988 53.1168 113.999 53.1168C114.01 53.1168 114.021 53.1168 114.032 53.1168C114.044 53.1168 114.055 53.1168 114.066 53.1168C114.078 53.1168 114.089 53.1168 114.1 53.1168C114.112 53.1168 114.123 53.1168 114.134 53.1168C114.146 53.1168 114.157 53.1168 114.168 53.1168C114.18 53.1168 114.191 53.1168 114.203 53.1168C114.214 53.1168 114.226 53.1168 114.237 53.1168C114.249 53.1168 114.26 53.1168 114.272 53.1168C114.283 53.1168 114.295 53.1168 114.306 53.1168C114.318 53.1168 114.329 53.1168 114.341 53.1168C114.353 53.1168 114.364 53.1168 114.376 53.1168C114.387 53.1168 114.399 53.1168 114.411 53.1168C114.422 53.1168 114.434 53.1168 114.446 53.1168C114.458 53.1168 114.469 53.1168 114.481 53.1168C114.493 53.1168 114.505 53.1168 114.516 53.1168C114.528 53.1168 114.54 53.1168 114.552 53.1168C114.564 53.1168 114.575 53.1168 114.587 53.1168C114.599 53.1168 114.611 53.1168 114.623 53.1168C114.635 53.1168 114.647 53.1168 114.659 53.1168C114.671 53.1168 114.683 53.1168 114.695 53.1168C114.707 53.1168 114.719 53.1168 114.731 53.1168C114.743 53.1168 114.755 53.1168 114.767 53.1168C114.779 53.1168 114.791 53.1168 114.803 53.1168C114.815 53.1168 114.827 53.1168 114.839 53.1168C114.852 53.1168 114.864 53.1168 114.876 53.1168C114.888 53.1168 114.9 53.1168 114.913 53.1168C114.925 53.1168 114.937 53.1168 114.949 53.1168C114.962 53.1168 114.974 53.1168 114.986 53.1168C114.998 53.1168 115.011 53.1168 115.023 53.1168C115.036 53.1168 115.048 53.1168 115.06 53.1168C115.073 53.1168 115.085 53.1168 115.098 53.1168C115.11 53.1168 115.122 53.1168 115.135 53.1168C115.147 53.1168 115.16 53.1168 115.172 53.1168C115.185 53.1168 115.198 53.1168 115.21 53.1168C115.223 53.1168 115.235 53.1168 115.248 53.1168C115.26 53.1168 115.273 53.1168 115.286 53.1168C115.298 53.1168 115.311 53.1168 115.324 53.1168C115.337 53.1168 115.349 53.1168 115.362 53.1168C115.375 53.1168 115.388 53.1168 115.4 53.1168C115.413 53.1168 115.426 53.1168 115.439 53.1168C115.452 53.1168 115.464 53.1168 115.477 53.1168C115.49 53.1168 115.503 53.1168 115.516 53.1168C115.529 53.1168 115.542 53.1168 115.555 53.1168C115.568 53.1168 115.581 53.1168 115.594 53.1168C115.607 53.1168 115.62 53.1168 115.633 53.1168C115.646 53.1168 115.659 53.1168 115.672 53.1168C115.685 53.1168 115.698 53.1168 115.712 53.1168C115.725 53.1168 115.738 53.1168 115.751 53.1168C115.764 53.1168 115.778 53.1168 115.791 53.1168C115.804 53.1168 115.817 53.1168 115.831 53.1168C115.844 53.1168 115.857 53.1168 115.871 53.1168C115.884 53.1168 115.897 53.1168 115.911 53.1168C115.924 53.1168 115.937 53.1168 115.951 53.1168C115.964 53.1168 115.978 53.1168 115.991 53.1168C116.005 53.1168 116.018 53.1168 116.032 53.1168C116.045 53.1168 116.059 53.1168 116.072 53.1168C116.086 53.1168 116.1 53.1168 116.113 53.1168C116.127 53.1168 116.141 53.1168 116.154 53.1168C116.168 53.1168 116.182 53.1168 116.195 53.1168C116.209 53.1168 116.223 53.1168 116.237 53.1168C116.25 53.1168 116.264 53.1168 116.278 53.1168C116.292 53.1168 116.306 53.1168 116.319 53.1168C116.333 53.1168 116.347 53.1168 116.361 53.1168C116.375 53.1168 116.389 53.1168 116.403 53.1168C116.417 53.1168 116.431 53.1168 116.445 53.1168C116.459 53.1168 116.473 53.1168 116.487 53.1168C116.501 53.1168 116.515 53.1168 116.529 53.1168C116.544 53.1168 116.558 53.1168 116.572 53.1168C116.586 53.1168 116.6 53.1168 116.615 53.1168C116.629 53.1168 116.643 53.1168 116.657 53.1168C116.672 53.1168 116.686 53.1168 116.7 53.1168C116.715 53.1168 116.729 53.1168 116.743 53.1168C116.758 53.1168 116.772 53.1168 116.786 53.1168C116.801 53.1168 116.815 53.1168 116.83 53.1168C116.844 53.1168 116.859 53.1168 116.873 53.1168C116.888 53.1168 116.902 53.1168 116.917 53.1168C116.932 53.1168 116.946 53.1168 116.961 53.1168C116.976 53.1168 116.99 53.1168 117.005 53.1168C117.02 53.1168 117.034 53.1168 117.049 53.1168C117.064 53.1168 117.079 53.1168 117.093 53.1168C117.108 53.1168 117.123 53.1168 117.138 53.1168C117.153 53.1168 117.168 53.1168 117.183 53.1168C117.197 53.1168 117.212 53.1168 117.227 53.1168C117.242 53.1168 117.257 53.1168 117.272 53.1168C117.287 53.1168 117.302 53.1168 117.318 53.1168C117.333 53.1168 117.348 53.1168 117.363 53.1168C117.378 53.1168 117.393 53.1168 117.408 53.1168C117.423 53.1168 117.439 53.1168 117.454 53.1168C117.469 53.1168 117.484 53.1168 117.5 53.1168C117.515 53.1168 117.53 53.1168 117.546 53.1168C117.561 53.1168 117.576 53.1168 117.592 53.1168C117.607 53.1168 117.623 53.1168 117.638 53.1168C117.654 53.1168 117.669 53.1168 117.685 53.1168C117.7 53.1168 117.716 53.1168 117.731 53.1168C117.747 53.1168 117.762 53.1168 117.778 53.1168C117.794 53.1168 117.809 53.1168 117.825 53.1168C117.841 53.1168 117.857 53.1168 117.872 53.1168V52.2231V51.3295C117.857 51.3295 117.841 51.3295 117.825 51.3295C117.809 51.3295 117.794 51.3295 117.778 51.3295C117.762 51.3295 117.747 51.3295 117.731 51.3295C117.716 51.3295 117.7 51.3295 117.685 51.3295C117.669 51.3295 117.654 51.3295 117.638 51.3295C117.623 51.3295 117.607 51.3295 117.592 51.3295C117.576 51.3295 117.561 51.3295 117.546 51.3295C117.53 51.3295 117.515 51.3295 117.5 51.3295C117.484 51.3295 117.469 51.3295 117.454 51.3295C117.439 51.3295 117.423 51.3295 117.408 51.3295C117.393 51.3295 117.378 51.3295 117.363 51.3295C117.348 51.3295 117.333 51.3295 117.318 51.3295C117.302 51.3295 117.287 51.3295 117.272 51.3295C117.257 51.3295 117.242 51.3295 117.227 51.3295C117.212 51.3295 117.197 51.3295 117.183 51.3295C117.168 51.3295 117.153 51.3295 117.138 51.3295C117.123 51.3295 117.108 51.3295 117.093 51.3295C117.079 51.3295 117.064 51.3295 117.049 51.3295C117.034 51.3295 117.02 51.3295 117.005 51.3295C116.99 51.3295 116.976 51.3295 116.961 51.3295C116.946 51.3295 116.932 51.3295 116.917 51.3295C116.902 51.3295 116.888 51.3295 116.873 51.3295C116.859 51.3295 116.844 51.3295 116.83 51.3295C116.815 51.3295 116.801 51.3295 116.786 51.3295C116.772 51.3295 116.758 51.3295 116.743 51.3295C116.729 51.3295 116.715 51.3295 116.7 51.3295C116.686 51.3295 116.672 51.3295 116.657 51.3295C116.643 51.3295 116.629 51.3295 116.615 51.3295C116.6 51.3295 116.586 51.3295 116.572 51.3295C116.558 51.3295 116.544 51.3295 116.529 51.3295C116.515 51.3295 116.501 51.3295 116.487 51.3295C116.473 51.3295 116.459 51.3295 116.445 51.3295C116.431 51.3295 116.417 51.3295 116.403 51.3295C116.389 51.3295 116.375 51.3295 116.361 51.3295C116.347 51.3295 116.333 51.3295 116.319 51.3295C116.306 51.3295 116.292 51.3295 116.278 51.3295C116.264 51.3295 116.25 51.3295 116.237 51.3295C116.223 51.3295 116.209 51.3295 116.195 51.3295C116.182 51.3295 116.168 51.3295 116.154 51.3295C116.141 51.3295 116.127 51.3295 116.113 51.3295C116.1 51.3295 116.086 51.3295 116.072 51.3295C116.059 51.3295 116.045 51.3295 116.032 51.3295C116.018 51.3295 116.005 51.3295 115.991 51.3295C115.978 51.3295 115.964 51.3295 115.951 51.3295C115.937 51.3295 115.924 51.3295 115.911 51.3295C115.897 51.3295 115.884 51.3295 115.871 51.3295C115.857 51.3295 115.844 51.3295 115.831 51.3295C115.817 51.3295 115.804 51.3295 115.791 51.3295C115.778 51.3295 115.764 51.3295 115.751 51.3295C115.738 51.3295 115.725 51.3295 115.712 51.3295C115.698 51.3295 115.685 51.3295 115.672 51.3295C115.659 51.3295 115.646 51.3295 115.633 51.3295C115.62 51.3295 115.607 51.3295 115.594 51.3295C115.581 51.3295 115.568 51.3295 115.555 51.3295C115.542 51.3295 115.529 51.3295 115.516 51.3295C115.503 51.3295 115.49 51.3295 115.477 51.3295C115.464 51.3295 115.452 51.3295 115.439 51.3295C115.426 51.3295 115.413 51.3295 115.4 51.3295C115.388 51.3295 115.375 51.3295 115.362 51.3295C115.349 51.3295 115.337 51.3295 115.324 51.3295C115.311 51.3295 115.298 51.3295 115.286 51.3295C115.273 51.3295 115.26 51.3295 115.248 51.3295C115.235 51.3295 115.223 51.3295 115.21 51.3295C115.198 51.3295 115.185 51.3295 115.172 51.3295C115.16 51.3295 115.147 51.3295 115.135 51.3295C115.122 51.3295 115.11 51.3295 115.098 51.3295C115.085 51.3295 115.073 51.3295 115.06 51.3295C115.048 51.3295 115.036 51.3295 115.023 51.3295C115.011 51.3295 114.998 51.3295 114.986 51.3295C114.974 51.3295 114.962 51.3295 114.949 51.3295C114.937 51.3295 114.925 51.3295 114.913 51.3295C114.9 51.3295 114.888 51.3295 114.876 51.3295C114.864 51.3295 114.852 51.3295 114.839 51.3295C114.827 51.3295 114.815 51.3295 114.803 51.3295C114.791 51.3295 114.779 51.3295 114.767 51.3295C114.755 51.3295 114.743 51.3295 114.731 51.3295C114.719 51.3295 114.707 51.3295 114.695 51.3295C114.683 51.3295 114.671 51.3295 114.659 51.3295C114.647 51.3295 114.635 51.3295 114.623 51.3295C114.611 51.3295 114.599 51.3295 114.587 51.3295C114.575 51.3295 114.564 51.3295 114.552 51.3295C114.54 51.3295 114.528 51.3295 114.516 51.3295C114.505 51.3295 114.493 51.3295 114.481 51.3295C114.469 51.3295 114.458 51.3295 114.446 51.3295C114.434 51.3295 114.422 51.3295 114.411 51.3295C114.399 51.3295 114.387 51.3295 114.376 51.3295C114.364 51.3295 114.353 51.3295 114.341 51.3295C114.329 51.3295 114.318 51.3295 114.306 51.3295C114.295 51.3295 114.283 51.3295 114.272 51.3295C114.26 51.3295 114.249 51.3295 114.237 51.3295C114.226 51.3295 114.214 51.3295 114.203 51.3295C114.191 51.3295 114.18 51.3295 114.168 51.3295C114.157 51.3295 114.146 51.3295 114.134 51.3295C114.123 51.3295 114.112 51.3295 114.1 51.3295C114.089 51.3295 114.078 51.3295 114.066 51.3295C114.055 51.3295 114.044 51.3295 114.032 51.3295C114.021 51.3295 114.01 51.3295 113.999 51.3295C113.988 51.3295 113.976 51.3295 113.965 51.3295C113.954 51.3295 113.943 51.3295 113.932 51.3295C113.92 51.3295 113.909 51.3295 113.898 51.3295C113.887 51.3295 113.876 51.3295 113.865 51.3295C113.854 51.3295 113.843 51.3295 113.832 51.3295C113.821 51.3295 113.81 51.3295 113.799 51.3295C113.788 51.3295 113.777 51.3295 113.766 51.3295C113.755 51.3295 113.744 51.3295 113.733 51.3295C113.722 51.3295 113.711 51.3295 113.7 51.3295C113.689 51.3295 113.678 51.3295 113.667 51.3295C113.656 51.3295 113.645 51.3295 113.635 51.3295C113.624 51.3295 113.613 51.3295 113.602 51.3295C113.591 51.3295 113.581 51.3295 113.57 51.3295C113.559 51.3295 113.548 51.3295 113.537 51.3295C113.527 51.3295 113.516 51.3295 113.505 51.3295C113.495 51.3295 113.484 51.3295 113.473 51.3295C113.463 51.3295 113.452 51.3295 113.441 51.3295C113.431 51.3295 113.42 51.3295 113.409 51.3295C113.399 51.3295 113.388 51.3295 113.377 51.3295C113.367 51.3295 113.356 51.3295 113.346 51.3295C113.335 51.3295 113.325 51.3295 113.314 51.3295C113.304 51.3295 113.293 51.3295 113.283 51.3295C113.272 51.3295 113.262 51.3295 113.251 51.3295C113.241 51.3295 113.23 51.3295 113.22 51.3295C113.209 51.3295 113.199 51.3295 113.189 51.3295C113.178 51.3295 113.168 51.3295 113.157 51.3295C113.147 51.3295 113.137 51.3295 113.126 51.3295C113.116 51.3295 113.106 51.3295 113.095 51.3295C113.085 51.3295 113.075 51.3295 113.065 51.3295C113.054 51.3295 113.044 51.3295 113.034 51.3295C113.023 51.3295 113.013 51.3295 113.003 51.3295C112.993 51.3295 112.983 51.3295 112.972 51.3295C112.962 51.3295 112.952 51.3295 112.942 51.3295C112.932 51.3295 112.921 51.3295 112.911 51.3295C112.901 51.3295 112.891 51.3295 112.881 51.3295C112.871 51.3295 112.861 51.3295 112.851 51.3295C112.841 51.3295 112.831 51.3295 112.82 51.3295C112.81 51.3295 112.8 51.3295 112.79 51.3295C112.78 51.3295 112.77 51.3295 112.76 51.3295C112.75 51.3295 112.74 51.3295 112.73 51.3295C112.72 51.3295 112.71 51.3295 112.7 51.3295C112.69 51.3295 112.681 51.3295 112.671 51.3295C112.661 51.3295 112.651 51.3295 112.641 51.3295C112.631 51.3295 112.621 51.3295 112.611 51.3295C112.601 51.3295 112.592 51.3295 112.582 51.3295C112.572 51.3295 112.562 51.3295 112.552 51.3295C112.542 51.3295 112.533 51.3295 112.523 51.3295C112.513 51.3295 112.503 51.3295 112.493 51.3295C112.484 51.3295 112.474 51.3295 112.464 51.3295C112.454 51.3295 112.445 51.3295 112.435 51.3295C112.425 51.3295 112.416 51.3295 112.406 51.3295C112.396 51.3295 112.386 51.3295 112.377 51.3295C112.367 51.3295 112.357 51.3295 112.348 51.3295C112.338 51.3295 112.329 51.3295 112.319 51.3295C112.309 51.3295 112.3 51.3295 112.29 51.3295C112.28 51.3295 112.271 51.3295 112.261 51.3295C112.252 51.3295 112.242 51.3295 112.233 51.3295C112.223 51.3295 112.214 51.3295 112.204 51.3295C112.194 51.3295 112.185 51.3295 112.175 51.3295C112.166 51.3295 112.156 51.3295 112.147 51.3295C112.137 51.3295 112.128 51.3295 112.119 51.3295C112.109 51.3295 112.1 51.3295 112.09 51.3295C112.081 51.3295 112.071 51.3295 112.062 51.3295C112.052 51.3295 112.043 51.3295 112.034 51.3295C112.024 51.3295 112.015 51.3295 112.005 51.3295C111.996 51.3295 111.987 51.3295 111.977 51.3295C111.968 51.3295 111.959 51.3295 111.949 51.3295C111.94 51.3295 111.931 51.3295 111.921 51.3295C111.912 51.3295 111.903 51.3295 111.893 51.3295C111.884 51.3295 111.875 51.3295 111.866 51.3295C111.856 51.3295 111.847 51.3295 111.838 51.3295C111.829 51.3295 111.819 51.3295 111.81 51.3295C111.801 51.3295 111.792 51.3295 111.782 51.3295C111.773 51.3295 111.764 51.3295 111.755 51.3295C111.746 51.3295 111.736 51.3295 111.727 51.3295C111.718 51.3295 111.709 51.3295 111.7 51.3295C111.691 51.3295 111.681 51.3295 111.672 51.3295C111.663 51.3295 111.654 51.3295 111.645 51.3295C111.636 51.3295 111.627 51.3295 111.618 51.3295C111.608 51.3295 111.599 51.3295 111.59 51.3295C111.581 51.3295 111.572 51.3295 111.563 51.3295C111.554 51.3295 111.545 51.3295 111.536 51.3295C111.527 51.3295 111.518 51.3295 111.509 51.3295C111.5 51.3295 111.491 51.3295 111.482 51.3295C111.473 51.3295 111.464 51.3295 111.455 51.3295C111.446 51.3295 111.437 51.3295 111.428 51.3295C111.419 51.3295 111.41 51.3295 111.401 51.3295C111.392 51.3295 111.383 51.3295 111.374 51.3295C111.365 51.3295 111.356 51.3295 111.347 51.3295C111.338 51.3295 111.329 51.3295 111.32 51.3295C111.311 51.3295 111.302 51.3295 111.294 51.3295C111.285 51.3295 111.276 51.3295 111.267 51.3295C111.258 51.3295 111.249 51.3295 111.24 51.3295C111.231 51.3295 111.222 51.3295 111.214 51.3295C111.205 51.3295 111.196 51.3295 111.187 51.3295C111.178 51.3295 111.169 51.3295 111.161 51.3295C111.152 51.3295 111.143 51.3295 111.134 51.3295C111.125 51.3295 111.116 51.3295 111.108 51.3295C111.099 51.3295 111.09 51.3295 111.081 51.3295C111.072 51.3295 111.064 51.3295 111.055 51.3295C111.046 51.3295 111.037 51.3295 111.029 51.3295C111.02 51.3295 111.011 51.3295 111.002 51.3295C110.994 51.3295 110.985 51.3295 110.976 51.3295C110.967 51.3295 110.959 51.3295 110.95 51.3295C110.941 51.3295 110.933 51.3295 110.924 51.3295C110.915 51.3295 110.906 51.3295 110.898 51.3295C110.889 51.3295 110.88 51.3295 110.872 51.3295C110.863 51.3295 110.854 51.3295 110.846 51.3295C110.837 51.3295 110.828 51.3295 110.82 51.3295C110.811 51.3295 110.802 51.3295 110.794 51.3295C110.785 51.3295 110.776 51.3295 110.768 51.3295C110.759 51.3295 110.75 51.3295 110.742 51.3295C110.733 51.3295 110.724 51.3295 110.716 51.3295C110.707 51.3295 110.699 51.3295 110.69 51.3295C110.681 51.3295 110.673 51.3295 110.664 51.3295C110.656 51.3295 110.647 51.3295 110.638 51.3295C110.63 51.3295 110.621 51.3295 110.613 51.3295C110.604 51.3295 110.595 51.3295 110.587 51.3295C110.578 51.3295 110.57 51.3295 110.561 51.3295C110.553 51.3295 110.544 51.3295 110.536 51.3295C110.527 51.3295 110.518 51.3295 110.51 51.3295C110.501 51.3295 110.493 51.3295 110.484 51.3295C110.476 51.3295 110.467 51.3295 110.459 51.3295C110.45 51.3295 110.442 51.3295 110.433 51.3295C110.425 51.3295 110.416 51.3295 110.408 51.3295C110.399 51.3295 110.39 51.3295 110.382 51.3295C110.373 51.3295 110.365 51.3295 110.356 51.3295C110.348 51.3295 110.339 51.3295 110.331 51.3295C110.322 51.3295 110.314 51.3295 110.306 51.3295C110.297 51.3295 110.289 51.3295 110.28 51.3295C110.272 51.3295 110.263 51.3295 110.255 51.3295C110.246 51.3295 110.238 51.3295 110.229 51.3295C110.221 51.3295 110.212 51.3295 110.204 51.3295C110.195 51.3295 110.187 51.3295 110.178 51.3295C110.17 51.3295 110.162 51.3295 110.153 51.3295C110.145 51.3295 110.136 51.3295 110.128 51.3295C110.119 51.3295 110.111 51.3295 110.102 51.3295C110.094 51.3295 110.086 51.3295 110.077 51.3295C110.069 51.3295 110.06 51.3295 110.052 51.3295C110.043 51.3295 110.035 51.3295 110.027 51.3295C110.018 51.3295 110.01 51.3295 110.001 51.3295C109.993 51.3295 109.984 51.3295 109.976 51.3295C109.968 51.3295 109.959 51.3295 109.951 51.3295C109.942 51.3295 109.934 51.3295 109.926 51.3295C109.917 51.3295 109.909 51.3295 109.9 51.3295C109.892 51.3295 109.884 51.3295 109.875 51.3295C109.867 51.3295 109.858 51.3295 109.85 51.3295C109.842 51.3295 109.833 51.3295 109.825 51.3295C109.816 51.3295 109.808 51.3295 109.8 51.3295C109.791 51.3295 109.783 51.3295 109.774 51.3295C109.766 51.3295 109.758 51.3295 109.749 51.3295C109.741 51.3295 109.732 51.3295 109.724 51.3295C109.716 51.3295 109.707 51.3295 109.699 51.3295C109.69 51.3295 109.682 51.3295 109.674 51.3295C109.665 51.3295 109.657 51.3295 109.649 51.3295C109.64 51.3295 109.632 51.3295 109.623 51.3295C109.615 51.3295 109.607 51.3295 109.598 51.3295C109.59 51.3295 109.581 51.3295 109.573 51.3295C109.565 51.3295 109.556 51.3295 109.548 51.3295C109.54 51.3295 109.531 51.3295 109.523 51.3295C109.514 51.3295 109.506 51.3295 109.498 51.3295C109.489 51.3295 109.481 51.3295 109.472 51.3295C109.464 51.3295 109.456 51.3295 109.447 51.3295C109.439 51.3295 109.431 51.3295 109.422 51.3295C109.414 51.3295 109.405 51.3295 109.397 51.3295C109.389 51.3295 109.38 51.3295 109.372 51.3295C109.363 51.3295 109.355 51.3295 109.347 51.3295C109.338 51.3295 109.33 51.3295 109.322 51.3295C109.313 51.3295 109.305 51.3295 109.296 51.3295C109.288 51.3295 109.28 51.3295 109.271 51.3295C109.263 51.3295 109.254 51.3295 109.246 51.3295C109.238 51.3295 109.229 51.3295 109.221 51.3295C109.212 51.3295 109.204 51.3295 109.196 51.3295C109.187 51.3295 109.179 51.3295 109.17 51.3295C109.162 51.3295 109.153 51.3295 109.145 51.3295C109.137 51.3295 109.128 51.3295 109.12 51.3295C109.111 51.3295 109.103 51.3295 109.095 51.3295C109.086 51.3295 109.078 51.3295 109.069 51.3295C109.061 51.3295 109.052 51.3295 109.044 51.3295C109.036 51.3295 109.027 51.3295 109.019 51.3295C109.01 51.3295 109.002 51.3295 108.993 51.3295C108.985 51.3295 108.977 51.3295 108.968 51.3295C108.96 51.3295 108.951 51.3295 108.943 51.3295C108.934 51.3295 108.926 51.3295 108.917 51.3295C108.909 51.3295 108.901 51.3295 108.892 51.3295C108.884 51.3295 108.875 51.3295 108.867 51.3295C108.858 51.3295 108.85 51.3295 108.841 51.3295C108.833 51.3295 108.824 51.3295 108.816 51.3295C108.807 51.3295 108.799 51.3295 108.79 51.3295C108.782 51.3295 108.773 51.3295 108.765 51.3295C108.756 51.3295 108.748 51.3295 108.739 51.3295C108.731 51.3295 108.722 51.3295 108.714 51.3295C108.705 51.3295 108.697 51.3295 108.688 51.3295C108.68 51.3295 108.671 51.3295 108.663 51.3295C108.654 51.3295 108.646 51.3295 108.637 51.3295C108.629 51.3295 108.62 51.3295 108.612 51.3295C108.603 51.3295 108.595 51.3295 108.586 51.3295C108.578 51.3295 108.569 51.3295 108.56 51.3295C108.552 51.3295 108.543 51.3295 108.535 51.3295C108.526 51.3295 108.518 51.3295 108.509 51.3295C108.5 51.3295 108.492 51.3295 108.483 51.3295C108.475 51.3295 108.466 51.3295 108.458 51.3295C108.449 51.3295 108.44 51.3295 108.432 51.3295C108.423 51.3295 108.415 51.3295 108.406 51.3295C108.397 51.3295 108.389 51.3295 108.38 51.3295C108.371 51.3295 108.363 51.3295 108.354 51.3295C108.346 51.3295 108.337 51.3295 108.328 51.3295C108.32 51.3295 108.311 51.3295 108.302 51.3295C108.294 51.3295 108.285 51.3295 108.276 51.3295C108.268 51.3295 108.259 51.3295 108.25 51.3295C108.242 51.3295 108.233 51.3295 108.224 51.3295C108.216 51.3295 108.207 51.3295 108.198 51.3295C108.19 51.3295 108.181 51.3295 108.172 51.3295C108.163 51.3295 108.155 51.3295 108.146 51.3295C108.137 51.3295 108.128 51.3295 108.12 51.3295C108.111 51.3295 108.102 51.3295 108.094 51.3295C108.085 51.3295 108.076 51.3295 108.067 51.3295C108.059 51.3295 108.05 51.3295 108.041 51.3295C108.032 51.3295 108.023 51.3295 108.015 51.3295C108.006 51.3295 107.997 51.3295 107.988 51.3295C107.979 51.3295 107.971 51.3295 107.962 51.3295C107.953 51.3295 107.944 51.3295 107.935 51.3295C107.927 51.3295 107.918 51.3295 107.909 51.3295C107.9 51.3295 107.891 51.3295 107.882 51.3295C107.873 51.3295 107.865 51.3295 107.856 51.3295C107.847 51.3295 107.838 51.3295 107.829 51.3295C107.82 51.3295 107.811 51.3295 107.802 51.3295C107.793 51.3295 107.785 51.3295 107.776 51.3295C107.767 51.3295 107.758 51.3295 107.749 51.3295C107.74 51.3295 107.731 51.3295 107.722 51.3295C107.713 51.3295 107.704 51.3295 107.695 51.3295C107.686 51.3295 107.677 51.3295 107.668 51.3295C107.659 51.3295 107.65 51.3295 107.641 51.3295C107.632 51.3295 107.623 51.3295 107.614 51.3295C107.605 51.3295 107.596 51.3295 107.587 51.3295C107.578 51.3295 107.569 51.3295 107.56 51.3295C107.551 51.3295 107.542 51.3295 107.533 51.3295C107.524 51.3295 107.515 51.3295 107.506 51.3295C107.497 51.3295 107.487 51.3295 107.478 51.3295C107.469 51.3295 107.46 51.3295 107.451 51.3295C107.442 51.3295 107.433 51.3295 107.424 51.3295C107.414 51.3295 107.405 51.3295 107.396 51.3295C107.387 51.3295 107.378 51.3295 107.369 51.3295C107.359 51.3295 107.35 51.3295 107.341 51.3295C107.332 51.3295 107.323 51.3295 107.313 51.3295C107.304 51.3295 107.295 51.3295 107.286 51.3295C107.277 51.3295 107.267 51.3295 107.258 51.3295C107.249 51.3295 107.24 51.3295 107.23 51.3295C107.221 51.3295 107.212 51.3295 107.202 51.3295C107.193 51.3295 107.184 51.3295 107.175 51.3295C107.165 51.3295 107.156 51.3295 107.147 51.3295C107.137 51.3295 107.128 51.3295 107.119 51.3295C107.109 51.3295 107.1 51.3295 107.09 51.3295C107.081 51.3295 107.072 51.3295 107.062 51.3295C107.053 51.3295 107.043 51.3295 107.034 51.3295C107.025 51.3295 107.015 51.3295 107.006 51.3295C106.996 51.3295 106.987 51.3295 106.977 51.3295C106.968 51.3295 106.958 51.3295 106.949 51.3295C106.939 51.3295 106.93 51.3295 106.92 51.3295C106.911 51.3295 106.901 51.3295 106.892 51.3295C106.882 51.3295 106.873 51.3295 106.863 51.3295C106.854 51.3295 106.844 51.3295 106.835 51.3295C106.825 51.3295 106.815 51.3295 106.806 51.3295C106.796 51.3295 106.787 51.3295 106.777 51.3295C106.767 51.3295 106.758 51.3295 106.748 51.3295C106.738 51.3295 106.729 51.3295 106.719 51.3295C106.709 51.3295 106.7 51.3295 106.69 51.3295C106.68 51.3295 106.671 51.3295 106.661 51.3295C106.651 51.3295 106.641 51.3295 106.632 51.3295C106.622 51.3295 106.612 51.3295 106.602 51.3295C106.593 51.3295 106.583 51.3295 106.573 51.3295C106.563 51.3295 106.554 51.3295 106.544 51.3295C106.534 51.3295 106.524 51.3295 106.514 51.3295C106.504 51.3295 106.495 51.3295 106.485 51.3295C106.475 51.3295 106.465 51.3295 106.455 51.3295C106.445 51.3295 106.435 51.3295 106.425 51.3295C106.415 51.3295 106.405 51.3295 106.395 51.3295C106.386 51.3295 106.376 51.3295 106.366 51.3295C106.356 51.3295 106.346 51.3295 106.336 51.3295C106.326 51.3295 106.316 51.3295 106.306 51.3295C106.296 51.3295 106.286 51.3295 106.275 51.3295C106.265 51.3295 106.255 51.3295 106.245 51.3295C106.235 51.3295 106.225 51.3295 106.215 51.3295C106.205 51.3295 106.195 51.3295 106.185 51.3295C106.174 51.3295 106.164 51.3295 106.154 51.3295C106.144 51.3295 106.134 51.3295 106.124 51.3295C106.113 51.3295 106.103 51.3295 106.093 51.3295C106.083 51.3295 106.072 51.3295 106.062 51.3295C106.052 51.3295 106.042 51.3295 106.031 51.3295C106.021 51.3295 106.011 51.3295 106.001 51.3295C105.99 51.3295 105.98 51.3295 105.97 51.3295C105.959 51.3295 105.949 51.3295 105.938 51.3295C105.928 51.3295 105.918 51.3295 105.907 51.3295C105.897 51.3295 105.886 51.3295 105.876 51.3295C105.866 51.3295 105.855 51.3295 105.845 51.3295C105.834 51.3295 105.824 51.3295 105.813 51.3295C105.803 51.3295 105.792 51.3295 105.782 51.3295C105.771 51.3295 105.761 51.3295 105.75 51.3295C105.74 51.3295 105.729 51.3295 105.718 51.3295C105.708 51.3295 105.697 51.3295 105.687 51.3295C105.676 51.3295 105.665 51.3295 105.655 51.3295C105.644 51.3295 105.633 51.3295 105.623 51.3295C105.612 51.3295 105.601 51.3295 105.591 51.3295C105.58 51.3295 105.569 51.3295 105.558 51.3295C105.548 51.3295 105.537 51.3295 105.526 51.3295C105.515 51.3295 105.505 51.3295 105.494 51.3295C105.483 51.3295 105.472 51.3295 105.461 51.3295C105.45 51.3295 105.44 51.3295 105.429 51.3295C105.418 51.3295 105.407 51.3295 105.396 51.3295C105.385 51.3295 105.374 51.3295 105.363 51.3295C105.352 51.3295 105.341 51.3295 105.33 51.3295C105.319 51.3295 105.308 51.3295 105.297 51.3295C105.286 51.3295 105.275 51.3295 105.264 51.3295C105.253 51.3295 105.242 51.3295 105.231 51.3295C105.22 51.3295 105.209 51.3295 105.198 51.3295C105.187 51.3295 105.175 51.3295 105.164 51.3295C105.153 51.3295 105.142 51.3295 105.131 51.3295C105.12 51.3295 105.108 51.3295 105.097 51.3295C105.086 51.3295 105.075 51.3295 105.063 51.3295C105.052 51.3295 105.041 51.3295 105.03 51.3295C105.018 51.3295 105.007 51.3295 104.996 51.3295C104.984 51.3295 104.973 51.3295 104.962 51.3295C104.95 51.3295 104.939 51.3295 104.927 51.3295C104.916 51.3295 104.905 51.3295 104.893 51.3295C104.882 51.3295 104.87 51.3295 104.859 51.3295C104.847 51.3295 104.836 51.3295 104.824 51.3295C104.813 51.3295 104.801 51.3295 104.79 51.3295C104.778 51.3295 104.767 51.3295 104.755 51.3295C104.743 51.3295 104.732 51.3295 104.72 51.3295C104.708 51.3295 104.697 51.3295 104.685 51.3295C104.673 51.3295 104.662 51.3295 104.65 51.3295C104.638 51.3295 104.627 51.3295 104.615 51.3295C104.603 51.3295 104.591 51.3295 104.58 51.3295C104.568 51.3295 104.556 51.3295 104.544 51.3295C104.532 51.3295 104.521 51.3295 104.509 51.3295C104.497 51.3295 104.485 51.3295 104.473 51.3295C104.461 51.3295 104.449 51.3295 104.437 51.3295C104.425 51.3295 104.413 51.3295 104.401 51.3295C104.389 51.3295 104.377 51.3295 104.365 51.3295C104.353 51.3295 104.341 51.3295 104.329 51.3295C104.317 51.3295 104.305 51.3295 104.293 51.3295C104.281 51.3295 104.269 51.3295 104.257 51.3295C104.244 51.3295 104.232 51.3295 104.22 51.3295C104.208 51.3295 104.196 51.3295 104.183 51.3295C104.171 51.3295 104.159 51.3295 104.147 51.3295C104.134 51.3295 104.122 51.3295 104.11 51.3295C104.097 51.3295 104.085 51.3295 104.073 51.3295C104.06 51.3295 104.048 51.3295 104.036 51.3295C104.023 51.3295 104.011 51.3295 103.998 51.3295C103.986 51.3295 103.973 51.3295 103.961 51.3295C103.948 51.3295 103.936 51.3295 103.923 51.3295C103.911 51.3295 103.898 51.3295 103.886 51.3295C103.873 51.3295 103.861 51.3295 103.848 51.3295C103.835 51.3295 103.823 51.3295 103.81 51.3295C103.797 51.3295 103.785 51.3295 103.772 51.3295C103.759 51.3295 103.747 51.3295 103.734 51.3295C103.721 51.3295 103.708 51.3295 103.696 51.3295C103.683 51.3295 103.67 51.3295 103.657 51.3295C103.644 51.3295 103.631 51.3295 103.619 51.3295C103.606 51.3295 103.593 51.3295 103.58 51.3295C103.567 51.3295 103.554 51.3295 103.541 51.3295C103.528 51.3295 103.515 51.3295 103.502 51.3295C103.489 51.3295 103.476 51.3295 103.463 51.3295C103.45 51.3295 103.437 51.3295 103.424 51.3295C103.411 51.3295 103.397 51.3295 103.384 51.3295C103.371 51.3295 103.358 51.3295 103.345 51.3295C103.332 51.3295 103.318 51.3295 103.305 51.3295C103.292 51.3295 103.279 51.3295 103.265 51.3295C103.252 51.3295 103.239 51.3295 103.225 51.3295C103.212 51.3295 103.199 51.3295 103.185 51.3295C103.172 51.3295 103.158 51.3295 103.145 51.3295C103.132 51.3295 103.118 51.3295 103.105 51.3295C103.091 51.3295 103.078 51.3295 103.064 51.3295C103.051 51.3295 103.037 51.3295 103.023 51.3295C103.01 51.3295 102.996 51.3295 102.983 51.3295C102.969 51.3295 102.955 51.3295 102.942 51.3295C102.928 51.3295 102.914 51.3295 102.901 51.3295C102.887 51.3295 102.873 51.3295 102.859 51.3295C102.846 51.3295 102.832 51.3295 102.818 51.3295C102.804 51.3295 102.79 51.3295 102.776 51.3295C102.763 51.3295 102.749 51.3295 102.735 51.3295C102.721 51.3295 102.707 51.3295 102.693 51.3295C102.679 51.3295 102.665 51.3295 102.651 51.3295C102.637 51.3295 102.623 51.3295 102.609 51.3295C102.595 51.3295 102.581 51.3295 102.566 51.3295C102.552 51.3295 102.538 51.3295 102.524 51.3295C102.51 51.3295 102.496 51.3295 102.481 51.3295C102.467 51.3295 102.453 51.3295 102.439 51.3295C102.424 51.3295 102.41 51.3295 102.396 51.3295C102.381 51.3295 102.367 51.3295 102.353 51.3295C102.338 51.3295 102.324 51.3295 102.309 51.3295C102.295 51.3295 102.281 51.3295 102.266 51.3295C102.252 51.3295 102.237 51.3295 102.223 51.3295C102.208 51.3295 102.193 51.3295 102.179 51.3295C102.164 51.3295 102.15 51.3295 102.135 51.3295C102.12 51.3295 102.106 51.3295 102.091 51.3295C102.076 51.3295 102.062 51.3295 102.047 51.3295C102.032 51.3295 102.017 51.3295 102.002 51.3295C101.988 51.3295 101.973 51.3295 101.958 51.3295C101.943 51.3295 101.928 51.3295 101.913 51.3295C101.898 51.3295 101.883 51.3295 101.869 51.3295C101.854 51.3295 101.839 51.3295 101.824 51.3295C101.809 51.3295 101.793 51.3295 101.778 51.3295C101.763 51.3295 101.748 51.3295 101.733 51.3295C101.718 51.3295 101.703 51.3295 101.688 51.3295C101.672 51.3295 101.657 51.3295 101.642 51.3295C101.627 51.3295 101.611 51.3295 101.596 51.3295C101.581 51.3295 101.566 51.3295 101.55 51.3295C101.535 51.3295 101.519 51.3295 101.504 51.3295C101.489 51.3295 101.473 51.3295 101.458 51.3295C101.442 51.3295 101.427 51.3295 101.411 51.3295C101.396 51.3295 101.38 51.3295 101.365 51.3295C101.349 51.3295 101.333 51.3295 101.318 51.3295C101.302 51.3295 101.286 51.3295 101.271 51.3295C101.255 51.3295 101.239 51.3295 101.224 51.3295V52.2231Z" fill="black" style="fill:black;fill-opacity:1;"/>
<defs>
<linearGradient id="paint0_linear_22004_14456" x1="145.566" y1="19.7109" x2="177.858" y2="91.1031" gradientUnits="userSpaceOnUse">
<stop stop-color="#FF7B57" style="stop-color:#FF7B57;stop-color:color(display-p3 1.0000 0.4824 0.3412);stop-opacity:1;"/>
<stop offset="1" stop-color="#FC842E" style="stop-color:#FC842E;stop-color:color(display-p3 0.9895 0.5176 0.1805);stop-opacity:1;"/>
</linearGradient>
</defs>
</svg>
