<svg width="23" height="24" viewBox="0 0 23 24" fill="none" xmlns="http://www.w3.org/2000/svg">
<path d="M17.6157 7.93132V5.08511C17.9924 4.90916 18.3114 4.62979 18.5354 4.27954C18.7595 3.9293 18.8794 3.5226 18.8813 3.10681V3.04028C18.8781 1.83063 17.8983 0.850846 16.6886 0.847622H16.6221C15.4125 0.850846 14.4327 1.8307 14.4294 3.04028V3.10681C14.4313 3.52259 14.5512 3.92929 14.7753 4.27953C14.9994 4.62977 15.3183 4.90915 15.6951 5.08511V7.93722C14.6119 8.10286 13.5918 8.55173 12.7379 9.23837L4.91054 3.14234C5.26647 1.80985 4.47477 0.441138 3.14227 0.0852068C1.80978 -0.270724 0.441069 0.52098 0.0852068 1.85347C-0.270724 3.18597 0.52098 4.55468 1.85347 4.91054C2.49057 5.08072 3.16912 4.99197 3.74103 4.66367L11.4369 10.6548C10.0182 12.795 10.0563 15.586 11.533 17.6867L9.19097 20.0287C9.00298 19.9688 8.8072 19.9369 8.60992 19.9341C7.48711 19.9341 6.57695 20.8443 6.57695 21.967C6.57695 23.0898 7.48718 24 8.60992 24C9.73272 24 10.6429 23.0898 10.6429 21.967C10.6401 21.7697 10.6082 21.5739 10.5482 21.386L12.8651 19.0691C15.6068 21.1633 19.5272 20.6384 21.6213 17.8966C23.7155 15.1549 23.1906 11.2346 20.4489 9.14042C19.6189 8.50648 18.6433 8.09075 17.6112 7.93126M16.6517 17.3083C14.8813 17.3042 13.4495 15.8658 13.4536 14.0955C13.4577 12.3251 14.8961 10.8933 16.6664 10.8974C18.4344 10.9014 19.8653 12.3363 19.8645 14.1043C19.8645 15.8746 18.4294 17.3098 16.659 17.3098" fill="white" style="fill:white;fill-opacity:1;"/>
</svg>
